# xmcd
#
# Track frame offsets:
#	150
#	11036
#	28350
#	42753
#	58327
#	67055
#	83240
#	99000
#	112107
#	126188
#	140293
#	150962
#	166511
#	180245
#	194670
#
# Disc length: 2780 seconds
#
# Revision: 1
# Processed by: cddbd v1.5.2PL0 Copyright (c) Steve Scherf et al.
# Submitted via: audiograbber 1.83.01
#
DISCID=c30ada0f
DTITLE=Various Artist - Etsi einai i agapi - CD 3
DYEAR=2012
DGENRE=Slow
TTITLE0=Tonis Maroudas - Ti einai auto pou to lene agapi
TTITLE1=Fwtis Dimas - H teleftaia mou agapi eisai su
TTITLE2=Zwi Kouroukli - Eisai o Theos mou esu
TTITLE3=Tzimis Makoulis - To romantzo mas
TTITLE4=Tzenny Banou - An s'arnithw agapi mou
TTITLE5=Nikos Gounaris - Ela agapi mou
TTITLE6=Petros Anagnwstakis - Irtha ki apopse sta skalopatia sou
TTITLE7=Aleka Kanellidou - Poso glyka me skotoneis
TTITLE8=Tzenny Banou - Agori mou
TTITLE9=Afroditi Manou - San me koitas
TTITLE10=Anna Vissi - Oso exw fwni
TTITLE11=Yiannis Poulopoulos - File mou
TTITLE12=Marinella - Tolmw
TTITLE13=Yiannis Kalatzis - Ta xrusa kleidia
TTITLE14=Litsa Dimanti - Den yparxei eutuxia
EXTD=
EXTT0=
EXTT1=
EXTT2=
EXTT3=
EXTT4=
EXTT5=
EXTT6=
EXTT7=
EXTT8=
EXTT9=
EXTT10=
EXTT11=
EXTT12=
EXTT13=
EXTT14=
PLAYORDER=
